<mxfile host="app.diagrams.net" modified="2023-05-14T13:25:50.778Z" agent="Mozilla/5.0 (Windows NT 10.0; Win64; x64) AppleWebKit/537.36 (KHTML, like Gecko) Chrome/113.0.0.0 Safari/537.36" etag="WoG6vcKBH6Mw-vYg7kBY" version="21.3.0" type="device">
  <diagram name="Страница 1" id="BPSZ_D-zRts92kgPjH4t">
    <mxGraphModel dx="2074" dy="1148" grid="1" gridSize="10" guides="1" tooltips="1" connect="1" arrows="1" fold="1" page="1" pageScale="1" pageWidth="827" pageHeight="1169" math="0" shadow="0">
      <root>
        <mxCell id="0" />
        <mxCell id="1" parent="0" />
        <mxCell id="X70Qgdf0w_KP_MLFUbgz-3" style="edgeStyle=orthogonalEdgeStyle;rounded=0;orthogonalLoop=1;jettySize=auto;html=1;entryX=0.5;entryY=0;entryDx=0;entryDy=0;" edge="1" parent="1" source="X70Qgdf0w_KP_MLFUbgz-1" target="X70Qgdf0w_KP_MLFUbgz-2">
          <mxGeometry relative="1" as="geometry" />
        </mxCell>
        <mxCell id="X70Qgdf0w_KP_MLFUbgz-1" value="Начало&lt;br&gt;loadData" style="ellipse;whiteSpace=wrap;html=1;" vertex="1" parent="1">
          <mxGeometry x="354" y="30" width="120" height="80" as="geometry" />
        </mxCell>
        <mxCell id="X70Qgdf0w_KP_MLFUbgz-5" style="edgeStyle=orthogonalEdgeStyle;rounded=0;orthogonalLoop=1;jettySize=auto;html=1;entryX=0.5;entryY=0;entryDx=0;entryDy=0;" edge="1" parent="1" source="X70Qgdf0w_KP_MLFUbgz-2" target="X70Qgdf0w_KP_MLFUbgz-4">
          <mxGeometry relative="1" as="geometry" />
        </mxCell>
        <mxCell id="X70Qgdf0w_KP_MLFUbgz-2" value="&lt;div style=&quot;font-size: 14px; line-height: 19px;&quot;&gt;&lt;span style=&quot;background-color: rgb(255, 255, 255);&quot;&gt;freeTree(node)&lt;/span&gt;&lt;/div&gt;" style="rounded=0;whiteSpace=wrap;html=1;" vertex="1" parent="1">
          <mxGeometry x="354" y="140" width="120" height="60" as="geometry" />
        </mxCell>
        <mxCell id="X70Qgdf0w_KP_MLFUbgz-7" style="edgeStyle=orthogonalEdgeStyle;rounded=0;orthogonalLoop=1;jettySize=auto;html=1;" edge="1" parent="1" source="X70Qgdf0w_KP_MLFUbgz-4" target="X70Qgdf0w_KP_MLFUbgz-6">
          <mxGeometry relative="1" as="geometry" />
        </mxCell>
        <mxCell id="X70Qgdf0w_KP_MLFUbgz-4" value="&lt;div style=&quot;font-size: 14px; line-height: 19px;&quot;&gt;&lt;span style=&quot;background-color: rgb(255, 255, 255);&quot;&gt;file = fopen(&quot;trainData.dat&quot;, &quot;rb&quot;)&lt;/span&gt;&lt;/div&gt;" style="rounded=0;whiteSpace=wrap;html=1;" vertex="1" parent="1">
          <mxGeometry x="354" y="230" width="120" height="60" as="geometry" />
        </mxCell>
        <mxCell id="X70Qgdf0w_KP_MLFUbgz-9" style="edgeStyle=orthogonalEdgeStyle;rounded=0;orthogonalLoop=1;jettySize=auto;html=1;entryX=0.5;entryY=0;entryDx=0;entryDy=0;" edge="1" parent="1" source="X70Qgdf0w_KP_MLFUbgz-6" target="X70Qgdf0w_KP_MLFUbgz-8">
          <mxGeometry relative="1" as="geometry" />
        </mxCell>
        <mxCell id="X70Qgdf0w_KP_MLFUbgz-14" value="TRUE" style="edgeStyle=orthogonalEdgeStyle;rounded=0;orthogonalLoop=1;jettySize=auto;html=1;" edge="1" parent="1" source="X70Qgdf0w_KP_MLFUbgz-6">
          <mxGeometry x="-0.8074" relative="1" as="geometry">
            <mxPoint x="420" y="600" as="targetPoint" />
            <Array as="points">
              <mxPoint x="281" y="360" />
            </Array>
            <mxPoint as="offset" />
          </mxGeometry>
        </mxCell>
        <mxCell id="X70Qgdf0w_KP_MLFUbgz-6" value="!file" style="rhombus;whiteSpace=wrap;html=1;" vertex="1" parent="1">
          <mxGeometry x="374" y="320" width="80" height="80" as="geometry" />
        </mxCell>
        <mxCell id="X70Qgdf0w_KP_MLFUbgz-11" style="edgeStyle=orthogonalEdgeStyle;rounded=0;orthogonalLoop=1;jettySize=auto;html=1;entryX=0.5;entryY=0;entryDx=0;entryDy=0;" edge="1" parent="1" source="X70Qgdf0w_KP_MLFUbgz-8" target="X70Qgdf0w_KP_MLFUbgz-10">
          <mxGeometry relative="1" as="geometry" />
        </mxCell>
        <mxCell id="X70Qgdf0w_KP_MLFUbgz-8" value="&lt;div style=&quot;font-size: 14px; line-height: 19px;&quot;&gt;&lt;span style=&quot;background-color: rgb(255, 255, 255);&quot;&gt;node = loadTree(node, file)&lt;/span&gt;&lt;/div&gt;" style="rounded=0;whiteSpace=wrap;html=1;" vertex="1" parent="1">
          <mxGeometry x="354" y="430" width="120" height="60" as="geometry" />
        </mxCell>
        <mxCell id="X70Qgdf0w_KP_MLFUbgz-13" style="edgeStyle=orthogonalEdgeStyle;rounded=0;orthogonalLoop=1;jettySize=auto;html=1;entryX=0.5;entryY=0;entryDx=0;entryDy=0;" edge="1" parent="1" source="X70Qgdf0w_KP_MLFUbgz-10" target="X70Qgdf0w_KP_MLFUbgz-12">
          <mxGeometry relative="1" as="geometry" />
        </mxCell>
        <mxCell id="X70Qgdf0w_KP_MLFUbgz-10" value="fclose(file)" style="rounded=0;whiteSpace=wrap;html=1;" vertex="1" parent="1">
          <mxGeometry x="354" y="525" width="120" height="60" as="geometry" />
        </mxCell>
        <mxCell id="X70Qgdf0w_KP_MLFUbgz-12" value="Конец" style="ellipse;whiteSpace=wrap;html=1;" vertex="1" parent="1">
          <mxGeometry x="354" y="620" width="120" height="80" as="geometry" />
        </mxCell>
      </root>
    </mxGraphModel>
  </diagram>
</mxfile>
